<svg xmlns="http://www.w3.org/2000/svg" viewBox="0 0 32 32"><path fill="#34485c" fill-rule="evenodd" d="M4.433 11.73v-1.706c0-.263 0-.7-.496-.7H2.47c-.989 0-1.455 1.422-1.455 1.977 0 .429.466.428.47.429z"/><path fill="none" stroke="#34485c" stroke-linecap="round" stroke-linejoin="round" stroke-width="1.016" d="m180.503 1647.823 1-.959m-22.006.093-1-1.041" transform="matrix(.9843 0 0 .98418 -152.563 -1609.079)"/><path fill="none" stroke="#576d7e" stroke-width="1.016" d="M154.997 1661.862h30" transform="matrix(.9843 0 0 .98418 -152.563 -1609.079)"/><path fill="#2b4255" d="M23.135 24.274v1.006c0 .672.532 1.213 1.194 1.213h1.548c.662 0 1.195-.541 1.195-1.213v-.99m-20.668-.937v1.95c0 .672-.533 1.19-1.195 1.163l-1.548-.064a1.263 1.263 0 0 1-1.194-1.261v-1.788"/><path fill="#f05542" fill-rule="evenodd" d="M4.538 11.947s4.264 1.046 10.232 1.292c5.97.246 10.233-.449 10.233-.449l.096-.046 2.96 2.947v8.114c-.007.447-.352.793-.788.775l-5.02-.207h-.098c0-.545-.44-1.002-.985-1.025l-12.795-.527a.935.935 0 0 0-.985.943h-.096l-5.02-.207c-.437-.017-.815-.394-.788-.84v-8.114l3.026-2.73z"/><path fill="#34485c" d="M25.104 12.717 23.45 6.945c-.188-.658-.553-1.244-1.24-1.273L7.33 5.058c-.686-.028-1.05.528-1.24 1.171l-1.653 5.635.101.082s4.264 1.046 10.232 1.292c5.97.246 10.233-.448 10.233-.448z"/><path fill="#4bbfeb" d="M24.103 12.884 22.61 7.667c-.171-.596-.5-1.125-1.121-1.151L8.038 5.96c-.622-.026-.95.477-1.121 1.059l-1.495 5.093.091.075s3.854.945 9.25 1.168c5.395.223 9.249-.405 9.249-.405z"/><path fill="none" stroke="#34485c" stroke-linecap="round" stroke-linejoin="round" stroke-width="1.016" d="m163.503 1652.127 13 .536-1.3 3.947-10.4-.43z" transform="matrix(.9843 0 0 .98418 -152.563 -1609.079)"/><path fill="none" stroke="#34485c" stroke-width="1.016" d="m164.003 1654.148 12 .495" transform="matrix(.9843 0 0 .98418 -152.563 -1609.079)"/><path fill="#34485c" fill-rule="evenodd" d="M25.103 12.714v-1.706c0-.262 0-.7.496-.7h1.468c.99 0 1.455 1.422 1.455 1.978 0 .428-.466.427-.469.428z"/><path fill="#f8b84e" fill-opacity=".917" d="m7.388 20.808-3.937-.163V16.71c2.46-.049 3.937 1.638 3.937 4.099zm14.765.609 3.937.162V17.642c-2.46-.25-3.937 1.314-3.937 3.775z"/><path fill="none" stroke="#2b4255" stroke-linecap="round" stroke-linejoin="round" stroke-width="1.016" d="M20.493 1024.862h1m-1.49-1.994-.5.866" transform="matrix(.9843 0 0 .98418 10.339 -984.125)"/></svg>